
<svg width="15" height="16px" class="Directionable-sc-1rngoi5-0 edWLbR UtilityBarstyles__StyledButtonIcon-sc-1ktumhf-8 liszhR" viewBox="0 0 37 16" aria-hidden="true" data-di-rand="1622455004799" xmlns="http://www.w3.org/2000/svg"><path fill="#2C2C2C" d="M29.4934,0.597299272 L29.587579,0.680519939 L36.122774,7.22016518 C36.4829618,7.58059825 36.5106685,8.14750912 36.2058942,8.53970801 L36.122774,8.6338973 L29.587579,15.1735425 C29.1971877,15.5641997 28.5640228,15.5644152 28.1733656,15.1740239 C27.8127589,14.8136627 27.7848363,14.2464411 28.0897277,13.8540461 L28.1728842,13.7598104 L33.002375,8.926386 L1.095375,8.92703124 C0.54309025,8.92703124 0.095375,8.47931599 0.095375,7.92703124 C0.095375,7.4141954 0.48141519,6.99152408 0.978753875,6.93375897 L1.095375,6.92703124 L33.002375,6.926386 L28.1728842,2.09425206 C27.812523,1.73364542 27.7849865,1.16640496 28.0901449,0.774217598 L28.1733656,0.680038581 C28.5339722,0.319677338 29.1012127,0.292140874 29.4934,0.597299272 Z"></path></svg>